<svg width="34" height="34" viewBox="0 0 34 34" fill="none" xmlns="http://www.w3.org/2000/svg">
<g clip-path="url(#clip0_5_60)">
<path d="M33.982 17.3181C33.982 15.9251 33.8664 14.9086 33.616 13.8545H17.3386V20.1416H26.8931C26.7005 21.7041 25.6603 24.0571 23.3487 25.6382L23.3163 25.8487L28.4629 29.7448L28.8195 29.7796C32.0942 26.8242 33.982 22.4758 33.982 17.3181Z" fill="#4285F4"/>
<path d="M17.3386 33.8832C22.0195 33.8832 25.9492 32.3772 28.8195 29.7796L23.3487 25.6382C21.8847 26.6359 19.9199 27.3324 17.3386 27.3324C12.754 27.3324 8.86289 24.3771 7.47581 20.2923L7.27249 20.3092L1.92097 24.3563L1.85098 24.5464C4.70191 30.0807 10.5579 33.8832 17.3386 33.8832Z" fill="#34A853"/>
<path d="M7.47591 20.2923C7.10992 19.2382 6.8981 18.1086 6.8981 16.9416C6.8981 15.7745 7.10992 14.6451 7.45666 13.5909L7.44696 13.3664L2.02837 9.25424L1.85108 9.33665C0.676081 11.6332 0.00186157 14.2121 0.00186157 16.9416C0.00186157 19.6711 0.676081 22.2499 1.85108 24.5465L7.47591 20.2923Z" fill="#FBBC05"/>
<path d="M17.3386 6.55074C20.5941 6.55074 22.79 7.92489 24.0422 9.07323L28.935 4.40485C25.9301 1.67537 22.0195 3.05176e-05 17.3386 3.05176e-05C10.5579 3.05176e-05 4.70191 3.80245 1.85098 9.33666L7.45655 13.5909C8.86289 9.50615 12.754 6.55074 17.3386 6.55074Z" fill="#EB4335"/>
</g>
<defs>
<clipPath id="clip0_5_60">
<rect width="34" height="34" fill="white"/>
</clipPath>
</defs>
</svg>
