<svg xmlns="http://www.w3.org/2000/svg" enable-background="new 0 0 32 32" viewBox="0 0 32 32" id="key"><path d="M30,14.19629H13.17346c-0.67834-2.82245-3.2171-4.92871-6.24475-4.92871C3.38379,9.26758,0.5,12.15137,0.5,15.69629S3.38379,22.125,6.92871,22.125c3.02765,0,5.56641-2.10626,6.24475-4.92871h10.03162v4.03613c0,0.82813,0.67188,1.5,1.5,1.5s1.5-0.67188,1.5-1.5v-4.03613H28.5v4.03613c0,0.82813,0.67188,1.5,1.5,1.5s1.5-0.67188,1.5-1.5v-5.53613C31.5,14.86816,30.82813,14.19629,30,14.19629z M6.92871,19.125C5.03809,19.125,3.5,17.58691,3.5,15.69629s1.53809-3.42871,3.42871-3.42871s3.42871,1.53809,3.42871,3.42871S8.81934,19.125,6.92871,19.125z"></path></svg>