<svg width="134" height="50" viewBox="0 0 134 50" fill="none" xmlns="http://www.w3.org/2000/svg">
<rect width="134" height="50" rx="8" fill="#111111"/>
<path d="M17.32 22.584V26.616C17.32 27.912 17.912 28.56 19.096 28.56C20.008 28.56 20.608 28.128 20.896 27.264C20.976 26.992 21.072 26.808 21.184 26.712C21.312 26.616 21.512 26.568 21.784 26.568H26.68C26.824 26.568 26.944 26.624 27.04 26.736C27.152 26.832 27.208 26.952 27.208 27.096C27.208 28.488 26.808 29.656 26.008 30.6C24.536 32.36 22.24 33.24 19.12 33.24C16.672 33.24 14.72 32.704 13.264 31.632C11.808 30.544 11.08 28.88 11.08 26.64V22.56C11.08 20.368 11.824 18.72 13.312 17.616C14.8 16.512 16.736 15.96 19.12 15.96C22.24 15.96 24.536 16.84 26.008 18.6C26.808 19.544 27.208 20.712 27.208 22.104C27.208 22.248 27.152 22.376 27.04 22.488C26.944 22.584 26.824 22.632 26.68 22.632H21.784C21.528 22.632 21.336 22.584 21.208 22.488C21.096 22.392 20.992 22.208 20.896 21.936C20.592 21.072 19.992 20.64 19.096 20.64C17.912 20.64 17.32 21.288 17.32 22.584ZM28.7697 29.424C28.7697 27.264 30.5217 25.88 34.0257 25.272L36.5697 24.864C36.5697 24.384 36.5297 24.064 36.4497 23.904C36.3697 23.728 36.1777 23.64 35.8737 23.64C35.5857 23.64 35.2977 23.768 35.0097 24.024C34.7217 24.28 34.4497 24.408 34.1937 24.408H30.1137C29.7617 24.408 29.5857 24.24 29.5857 23.904C29.5857 23.552 29.7057 23.184 29.9457 22.8C30.2017 22.4 30.5617 22.008 31.0257 21.624C31.5057 21.24 32.1697 20.92 33.0177 20.664C33.8817 20.408 34.8417 20.28 35.8977 20.28C38.0417 20.28 39.6497 20.728 40.7217 21.624C41.7937 22.52 42.3297 23.8 42.3297 25.464V32.352C42.3297 32.528 42.2657 32.68 42.1377 32.808C42.0097 32.936 41.8577 33 41.6817 33H37.4817C37.3057 33 37.1537 32.936 37.0257 32.808C36.8977 32.68 36.8337 32.528 36.8337 32.352V31.68C36.0817 32.72 34.9857 33.24 33.5457 33.24C32.1057 33.24 30.9457 32.88 30.0657 32.16C29.2017 31.424 28.7697 30.512 28.7697 29.424ZM35.0817 29.688C36.1217 29.688 36.6417 29.064 36.6417 27.816L35.2257 28.128C34.5217 28.288 34.1697 28.584 34.1697 29.016C34.1697 29.208 34.2497 29.368 34.4097 29.496C34.5697 29.624 34.7937 29.688 35.0817 29.688ZM51.7984 24.72V27.36C51.7984 28.16 52.1424 28.56 52.8304 28.56H55.0144C55.1904 28.56 55.3424 28.624 55.4704 28.752C55.5984 28.88 55.6624 29.032 55.6624 29.208V32.352C55.6624 32.528 55.5984 32.68 55.4704 32.808C55.3424 32.936 55.1904 33 55.0144 33H52.3024C48.3024 33 46.3024 31.28 46.3024 27.84V24.72H44.4064C44.2304 24.72 44.0784 24.656 43.9504 24.528C43.8224 24.4 43.7584 24.248 43.7584 24.072V21.168C43.7584 20.992 43.8224 20.84 43.9504 20.712C44.0784 20.584 44.2304 20.52 44.4064 20.52H46.3024V16.608C46.3024 16.432 46.3664 16.28 46.4944 16.152C46.6224 16.024 46.7744 15.96 46.9504 15.96H51.1504C51.3264 15.96 51.4784 16.024 51.6064 16.152C51.7344 16.28 51.7984 16.432 51.7984 16.608V20.52H54.8224C54.9984 20.52 55.1504 20.584 55.2784 20.712C55.4064 20.84 55.4704 20.992 55.4704 21.168V24.072C55.4704 24.248 55.4064 24.4 55.2784 24.528C55.1504 24.656 54.9984 24.72 54.8224 24.72H51.7984ZM62.8684 25.92V27.6C62.8684 28.144 62.9404 28.536 63.0844 28.776C63.2284 29.016 63.4524 29.136 63.7564 29.136C64.0604 29.136 64.2684 29.088 64.3804 28.992C64.4924 28.88 64.6044 28.68 64.7164 28.392C64.8444 28.088 65.0764 27.936 65.4124 27.936H70.0924C70.2684 27.936 70.4204 28 70.5484 28.128C70.6764 28.256 70.7404 28.424 70.7404 28.632C70.7404 28.84 70.6684 29.12 70.5244 29.472C70.3804 29.824 70.1324 30.224 69.7804 30.672C69.4284 31.12 68.9964 31.536 68.4844 31.92C67.9724 32.288 67.3004 32.6 66.4684 32.856C65.6364 33.112 64.7164 33.24 63.7084 33.24C61.7084 33.24 60.0844 32.72 58.8364 31.68C57.6044 30.624 56.9884 29.168 56.9884 27.312V26.208C56.9884 24.352 57.6044 22.904 58.8364 21.864C60.0844 20.808 61.7084 20.28 63.7084 20.28C64.8924 20.28 65.9644 20.464 66.9244 20.832C67.8844 21.184 68.6204 21.624 69.1324 22.152C69.6604 22.664 70.0604 23.168 70.3324 23.664C70.6044 24.16 70.7404 24.544 70.7404 24.816C70.7404 25.072 70.6764 25.264 70.5484 25.392C70.4204 25.52 70.2684 25.584 70.0924 25.584H65.4124C65.1084 25.584 64.8764 25.424 64.7164 25.104C64.4924 24.624 64.1964 24.384 63.8284 24.384C63.1884 24.384 62.8684 24.896 62.8684 25.92ZM78.6291 25.896V32.352C78.6291 32.528 78.5651 32.68 78.4371 32.808C78.3091 32.936 78.1571 33 77.9811 33H73.3011C73.1251 33 72.9731 32.936 72.8451 32.808C72.7171 32.68 72.6531 32.528 72.6531 32.352V16.608C72.6531 16.432 72.7171 16.28 72.8451 16.152C72.9731 16.024 73.1251 15.96 73.3011 15.96H77.9811C78.1571 15.96 78.3091 16.024 78.4371 16.152C78.5651 16.28 78.6291 16.432 78.6291 16.608V21.768C79.5411 20.776 80.7091 20.28 82.1331 20.28C83.5571 20.28 84.7331 20.744 85.6611 21.672C86.5891 22.6 87.0531 23.952 87.0531 25.728V32.328C87.0531 32.504 86.9891 32.656 86.8611 32.784C86.7331 32.912 86.5811 32.976 86.4051 32.976H81.7011C81.5251 32.976 81.3731 32.912 81.2451 32.784C81.1171 32.656 81.0531 32.504 81.0531 32.328V25.896C81.0531 25.016 80.6451 24.576 79.8291 24.576C79.0291 24.576 78.6291 25.016 78.6291 25.896Z" fill="white"/>
<path d="M99.6606 16.2H104.365C104.541 16.2 104.693 16.264 104.821 16.392C104.949 16.52 105.013 16.672 105.013 16.848V26.496C105.013 28.736 104.317 30.424 102.925 31.56C101.533 32.68 99.6366 33.24 97.2366 33.24C94.8526 33.24 92.9566 32.68 91.5486 31.56C90.1566 30.44 89.4606 28.752 89.4606 26.496V16.848C89.4606 16.672 89.5246 16.52 89.6526 16.392C89.7806 16.264 89.9326 16.2 90.1086 16.2H94.8126C94.9886 16.2 95.1406 16.264 95.2686 16.392C95.3966 16.52 95.4606 16.672 95.4606 16.848V26.568C95.4606 27.8 96.0526 28.416 97.2366 28.416C98.4206 28.416 99.0126 27.8 99.0126 26.568V16.848C99.0126 16.672 99.0766 16.52 99.2046 16.392C99.3326 16.264 99.4846 16.2 99.6606 16.2ZM108.536 16.2H115.688C117.992 16.2 119.792 16.696 121.088 17.688C122.384 18.68 123.032 20.144 123.032 22.08C123.032 24.016 122.384 25.448 121.088 26.376C119.808 27.304 118.008 27.768 115.688 27.768H114.128V32.352C114.128 32.528 114.064 32.68 113.936 32.808C113.808 32.936 113.656 33 113.48 33H108.536C108.36 33 108.208 32.936 108.08 32.808C107.952 32.68 107.888 32.528 107.888 32.352V16.848C107.888 16.672 107.952 16.52 108.08 16.392C108.208 16.264 108.36 16.2 108.536 16.2ZM114.008 20.664V23.328H115.688C115.976 23.328 116.232 23.224 116.456 23.016C116.68 22.792 116.792 22.48 116.792 22.08C116.792 21.68 116.704 21.344 116.528 21.072C116.352 20.8 116.072 20.664 115.688 20.664H114.008Z" fill="#31B5FF"/>
</svg>
