<svg width="32" height="32" viewBox="0 0 32 32" fill="none" xmlns="http://www.w3.org/2000/svg">
<path d="M13.8667 3.2C7.98828 3.2 3.20001 7.98826 3.20001 13.8667C3.20001 19.7451 7.98828 24.5333 13.8667 24.5333C16.423 24.5333 18.7706 23.6256 20.6104 22.1188L26.9792 28.4875C27.0775 28.5899 27.1952 28.6716 27.3255 28.7279C27.4557 28.7842 27.5959 28.814 27.7378 28.8154C27.8798 28.8169 28.0205 28.79 28.1519 28.7363C28.2833 28.6827 28.4027 28.6034 28.503 28.503C28.6034 28.4027 28.6827 28.2833 28.7363 28.1519C28.79 28.0205 28.8169 27.8797 28.8154 27.7378C28.814 27.5959 28.7842 27.4557 28.7279 27.3255C28.6716 27.1952 28.5899 27.0775 28.4875 26.9792L22.1188 20.6104C23.6256 18.7705 24.5333 16.4229 24.5333 13.8667C24.5333 7.98826 19.7451 3.2 13.8667 3.2ZM13.8667 5.33333C18.5921 5.33333 22.4 9.1412 22.4 13.8667C22.4 18.5921 18.5921 22.4 13.8667 22.4C9.14122 22.4 5.33335 18.5921 5.33335 13.8667C5.33335 9.1412 9.14122 5.33333 13.8667 5.33333Z" fill="#000"/>
</svg>
