<?xml version="1.0" encoding="utf-8"?>
<!-- Uploaded to: SVG Repo, www.svgrepo.com, Generator: SVG Repo Mixer Tools -->
<svg width="800px" height="800px" viewBox="0 0 1024 1024" fill="#000000" class="icon"  version="1.1" xmlns="http://www.w3.org/2000/svg"><path d="M249.6 367.2c0 36 29.6 65.6 65.6 65.6s65.6-29.6 65.6-65.6-29.6-65.6-65.6-65.6-65.6 29.6-65.6 65.6zM512 790.4c214.4 0 259.2-194.4 259.2-194.4H252.8S297.6 790.4 512 790.4z" fill="" /><path d="M512 1010.4c-274.4 0-497.6-224-497.6-498.4S237.6 14.4 512 14.4s498.4 223.2 498.4 498.4-224 497.6-498.4 497.6zM512 68C267.2 68 68 267.2 68 512s199.2 444 444 444 444-199.2 444-444S756.8 68 512 68z" fill="" /><path d="M643.2 367.2c0 36 29.6 65.6 65.6 65.6 36 0 65.6-29.6 65.6-65.6s-29.6-65.6-65.6-65.6c-36 0-65.6 29.6-65.6 65.6z" fill="" /></svg>